<svg width="804" height="718" viewBox="0 0 804 718" fill="none" xmlns="http://www.w3.org/2000/svg">
<g filter="url(#filter0_d_129_2)">
<rect x="77" y="148.348" width="573.233" height="450.866" rx="50" transform="rotate(-8.46147 77 148.348)" fill="#66BB6A"/>
</g>
<g clip-path="url(#clip0_129_2)">
<g filter="url(#filter1_bd_129_2)">
<path d="M709.903 136.124V488.04C709.903 512.367 687.842 532.082 660.621 532.082H219.184C191.963 532.082 169.903 512.367 169.903 488.04V136.124C169.903 111.797 191.963 92.082 219.184 92.082H660.621C687.842 92.082 709.903 111.797 709.903 136.124Z" fill="url(#paint0_linear_129_2)" shape-rendering="crispEdges"/>
</g>
<path d="M349.985 530.921L381.58 524.059L418.189 516.102C418.189 516.102 420.171 522.177 422.952 530.921H349.985Z" fill="#2F2E41"/>
<path d="M429.963 526.978C429.963 526.978 429.667 528.563 429.06 530.92H281.56C279.933 525.955 279.208 520.843 281.145 516.619C281.471 515.882 281.883 515.185 282.373 514.545C282.736 514.041 283.142 513.57 283.586 513.137C286.485 510.262 288.26 504.068 289.325 497.014C290.604 487.368 291.133 477.637 290.908 467.909C290.923 467.895 290.923 467.895 290.908 467.895C290.878 465.598 290.819 464.219 290.819 464.219C290.819 464.219 290.257 455.728 289.621 442.895C289.636 442.895 289.621 442.88 289.621 442.88C287.876 408.248 285.509 341.948 291.647 324.373C292.039 322.892 292.832 321.548 293.94 320.491C302.204 314.515 310.997 309.312 320.21 304.945C320.742 304.708 321.023 304.575 321.023 304.575L341.273 304.19L366.418 299.744L383.887 296.543C383.887 296.543 385.174 296.632 387.186 296.913C393.871 297.832 408.574 300.841 410.645 309.554C410.645 309.569 410.66 309.584 410.66 309.598C410.921 310.741 410.967 311.922 410.793 313.081C408.811 327.604 422.803 416.799 427.063 421.259C431.323 425.72 430.199 442.021 419.668 452.379C417.812 454.295 416.46 456.642 415.733 459.211C411.754 472.029 417.996 492.968 424.105 502.764C428.544 510.02 430.593 518.491 429.963 526.978Z" fill="#3F3D56"/>
<path d="M510.514 241.83L510.09 226.323L509.523 205.528L492.976 204.762L490.659 225.423L488.5 244.623L510.514 241.83Z" fill="#A0616A"/>
<path d="M341.022 307.486L364.236 332.446C364.236 332.446 462.597 348.361 463.255 340.004C463.913 331.648 457.434 329.227 468.054 329.97C478.675 330.712 481.227 338.272 482.846 331.042C484.464 323.812 475.559 323.635 485.87 322.61C496.181 321.585 518.701 231.395 518.701 231.395L482.778 237.199C482.778 237.199 475.796 280.807 471.417 286.38C467.039 291.952 462.646 295.951 459.945 296.192C457.244 296.434 341.022 307.486 341.022 307.486Z" fill="#3F3D56"/>
<path d="M354.335 275.219C373.17 275.219 388.438 259.922 388.438 241.053C388.438 222.183 373.17 206.887 354.335 206.887C335.501 206.887 320.232 222.183 320.232 241.053C320.232 259.922 335.501 275.219 354.335 275.219Z" fill="#A0616A"/>
<path d="M327.76 270.479L341.279 273.072C341.279 273.072 328.706 252.74 329.446 243.434C330.185 234.128 340.303 230.793 340.303 230.793C340.303 230.793 345.909 232.009 351.811 232.69C352.517 230.696 353.435 228.784 354.547 226.985C354.766 229.307 355.792 231.479 357.446 233.12C359.609 233.306 361.787 233.054 363.851 232.379C366.188 231.312 366.143 229.46 365.374 227.726C376.631 228.274 387.295 233.757 387.295 233.757C387.635 229.208 387.462 224.634 386.778 220.124C386.452 220.035 386.127 219.931 385.801 219.827C383.785 219.189 381.842 218.339 380.003 217.293C382.05 217.021 383.961 216.121 385.476 214.715C384.233 211.069 382.251 207.913 379.13 206.372C376.119 204.897 372.827 204.087 369.476 203.997C366.125 203.908 362.794 204.541 359.709 205.853C359.709 205.853 366.942 200.563 364.28 198.399C364.102 198.577 363.925 198.74 363.732 198.903C363.481 199.111 363.2 199.333 362.934 199.54C361.292 200.874 358.836 198.992 358.511 196.977C358.476 196.722 358.427 196.47 358.363 196.221C358.319 196.013 358.26 195.806 358.2 195.613C358.15 195.442 358.091 195.274 358.023 195.109C353.097 193.924 338.202 198.74 332.478 209.35C332.478 209.35 292.467 228.615 327.76 270.479Z" fill="#3F3D56"/>
<path d="M311.409 530.919H292.298L291.647 529.837L282.373 514.544L277.255 506.097L289.325 497.014L295.005 492.746L307.533 521.894L311.409 530.919Z" fill="#A0616A"/>
<path d="M320.216 304.948L367.904 415.334L387.192 296.916C385.18 296.634 383.893 296.545 383.893 296.545L375.684 280.57L328.662 283.015L321.029 304.577C321.029 304.577 320.748 304.71 320.216 304.948Z" fill="#66BB6A"/>
<path d="M382.955 530.921H345.399L369.377 462.754L381.579 524.06L382.955 530.921Z" fill="#43A047"/>
<path opacity="0.5" d="M611.293 321.734H503.34C486.224 321.734 472.349 335.635 472.349 352.783V391.884C472.349 409.031 486.224 422.932 503.34 422.932H611.293C628.409 422.932 642.284 409.031 642.284 391.884V352.783C642.284 335.635 628.409 321.734 611.293 321.734Z" fill="white"/>
<path d="M611.293 424.094H503.34C494.816 424.084 486.645 420.687 480.617 414.649C474.59 408.611 471.2 400.424 471.19 391.884V352.784C471.2 344.244 474.59 336.057 480.617 330.019C486.645 323.981 494.816 320.584 503.34 320.574H611.293C619.816 320.584 627.988 323.981 634.015 330.019C640.042 336.057 643.433 344.244 643.443 352.784V391.884C643.433 400.424 640.042 408.611 634.015 414.649C627.988 420.687 619.816 424.084 611.293 424.094V424.094ZM503.34 322.896C495.431 322.905 487.848 326.057 482.255 331.66C476.663 337.263 473.517 344.86 473.508 352.784V391.884C473.517 399.808 476.663 407.405 482.255 413.008C487.848 418.611 495.431 421.763 503.34 421.772H611.293C619.202 421.763 626.785 418.611 632.377 413.008C637.97 407.405 641.116 399.808 641.125 391.884V352.784C641.116 344.86 637.97 337.263 632.377 331.66C626.785 326.057 619.202 322.905 611.293 322.896L503.34 322.896Z" fill="white"/>
<path d="M557.177 401.005C570.847 401.005 581.929 389.903 581.929 376.208C581.929 362.512 570.847 351.41 557.177 351.41C543.507 351.41 532.426 362.512 532.426 376.208C532.426 389.903 543.507 401.005 557.177 401.005Z" fill="#A0616A"/>
<path d="M562.605 400.863C559.566 394.075 576.031 379.991 565.482 379.276C565.482 379.276 558.546 367.095 554.143 370.361C549.044 374.142 541.614 367.274 537.249 362.679C538.178 361.929 539.012 361.066 539.731 360.112C538.344 360.367 536.939 360.515 535.529 360.553C535.006 359.778 534.64 358.906 534.452 357.989C534.247 357.121 534.313 356.212 534.639 355.382C534.965 354.552 535.538 353.843 536.278 353.348C537.878 352.455 539.921 353.001 541.631 352.36C541.844 352.256 542.029 352.101 542.17 351.909C542.31 351.718 542.403 351.495 542.438 351.259C542.567 350.706 542.815 350.187 543.166 349.741C543.517 349.294 543.962 348.931 544.47 348.677C544.977 348.422 545.534 348.283 546.101 348.269C546.668 348.255 547.231 348.366 547.751 348.595C547.949 348.708 548.171 348.77 548.399 348.776C549.591 348.7 550.769 348.482 551.909 348.127C550.63 347.528 549.398 346.831 548.224 346.044C547.983 345.88 547.741 345.716 547.505 345.542C548.568 344.677 549.805 344.052 551.131 343.711C552.457 343.369 553.841 343.318 555.189 343.562C558.015 344.112 560.739 345.098 563.264 346.482C564.761 347.213 566.254 347.942 567.745 348.669C570.962 350.088 574.021 351.844 576.869 353.908C579.84 356.248 582.259 359.217 583.953 362.602C585.647 365.987 586.573 369.704 586.667 373.49C586.803 381.042 580.354 401.736 562.605 400.863Z" fill="#2F2E41"/>
<path opacity="0.5" d="M410.07 420.438H302.117C285.002 420.438 271.126 434.338 271.126 451.486V490.587C271.126 507.734 285.002 521.635 302.117 521.635H410.07C427.186 521.635 441.061 507.734 441.061 490.587V451.486C441.061 434.338 427.186 420.438 410.07 420.438Z" fill="white"/>
<path d="M410.07 522.793H302.118C293.594 522.783 285.422 519.387 279.395 513.348C273.368 507.31 269.977 499.123 269.968 490.583V451.483C269.977 442.944 273.368 434.757 279.395 428.718C285.422 422.68 293.594 419.283 302.118 419.273H410.07C418.594 419.283 426.766 422.68 432.793 428.718C438.82 434.757 442.211 442.944 442.22 451.483V490.583C442.211 499.123 438.82 507.31 432.793 513.348C426.766 519.387 418.594 522.783 410.07 522.793ZM302.118 421.595C294.208 421.604 286.626 424.756 281.033 430.359C275.44 435.962 272.294 443.559 272.285 451.483V490.583C272.294 498.507 275.44 506.104 281.033 511.707C286.626 517.31 294.208 520.462 302.118 520.471H410.07C417.98 520.462 425.562 517.31 431.155 511.707C436.748 506.104 439.894 498.507 439.903 490.583V451.483C439.894 443.559 436.748 435.962 431.155 430.359C425.562 424.756 417.98 421.604 410.07 421.595H302.118Z" fill="white"/>
<path d="M357.752 503.309C371.641 503.309 382.901 492.029 382.901 478.114C382.901 464.198 371.641 452.918 357.752 452.918C343.862 452.918 332.603 464.198 332.603 478.114C332.603 492.029 343.862 503.309 357.752 503.309Z" fill="#FFB6B6"/>
<path d="M341.369 484.586C341.056 484.481 340.724 484.444 340.396 484.478C340.068 484.512 339.751 484.617 339.466 484.784C339.181 484.951 338.936 485.178 338.746 485.449C338.557 485.719 338.427 486.027 338.367 486.352C338.284 487.02 338.338 487.697 338.525 488.343C338.713 488.988 339.03 489.589 339.457 490.107C340.316 491.137 341.085 492.239 341.757 493.4C342.085 493.987 342.239 494.656 342.2 495.328C342.162 496 341.932 496.647 341.539 497.193C341.11 497.61 340.572 497.898 339.987 498.021C339.402 498.145 338.794 498.1 338.234 497.891C337.118 497.454 336.131 496.74 335.367 495.816C330.559 490.59 325.544 481.914 328.002 475.247C328.206 474.535 328.287 473.792 328.241 473.052C328.288 472.204 328.445 470.926 327.648 470.638C325.422 469.833 331.667 456.799 341.306 453.964C340.836 449.513 364.025 443.112 362.759 448.699C362.532 449.702 364.771 449.157 365.796 449.213C373.664 449.639 382.549 451.62 381.833 460.756C381.555 464.293 383.016 463.477 384.189 466.826C382.362 467.917 381.762 470.31 380.354 468.713C378.945 467.116 377.742 465.116 375.723 464.445C373.574 463.731 371.241 464.8 369.408 466.132C367.574 467.464 365.892 469.119 363.737 469.816C361.32 470.599 358.685 470.054 356.164 470.371C352.569 470.989 349.322 472.9 347.032 475.746C344.775 478.575 342.87 481.668 341.36 484.958" fill="#2F2E41"/>
<path d="M327.227 320.219L293.207 321.701C293.207 321.701 242.916 407.651 248.832 413.578C254.749 419.506 260.793 416.141 253.333 423.751C245.874 431.361 238.478 428.397 242.916 434.325C247.353 440.252 253.27 433.582 247.353 442.104C241.436 450.625 289.509 530.922 289.509 530.922L310.217 520.549C310.217 520.549 290.065 467.498 288.678 460.544C287.29 453.589 287.107 447.645 288.678 445.431C290.248 443.216 327.227 320.219 327.227 320.219Z" fill="#3F3D56"/>
<path d="M501.454 347.232C505.86 347.232 509.431 343.654 509.431 339.241C509.431 334.828 505.86 331.25 501.454 331.25C497.049 331.25 493.478 334.828 493.478 339.241C493.478 343.654 497.049 347.232 501.454 347.232Z" fill="#43A047"/>
<path d="M500.366 343.4C500.229 343.4 500.093 343.368 499.97 343.306C499.846 343.244 499.739 343.155 499.657 343.044L497.481 340.138C497.41 340.044 497.358 339.938 497.329 339.824C497.299 339.711 497.292 339.593 497.308 339.477C497.324 339.361 497.363 339.249 497.423 339.148C497.482 339.047 497.561 338.959 497.655 338.888C497.748 338.818 497.855 338.767 497.968 338.738C498.082 338.709 498.2 338.703 498.315 338.72C498.431 338.737 498.542 338.777 498.643 338.837C498.743 338.897 498.831 338.977 498.9 339.071L500.324 340.973L503.98 335.478C504.111 335.282 504.314 335.146 504.544 335.099C504.775 335.053 505.015 335.101 505.211 335.231C505.406 335.362 505.542 335.565 505.588 335.797C505.635 336.028 505.587 336.268 505.457 336.464L501.105 343.004C501.026 343.122 500.92 343.22 500.796 343.289C500.672 343.358 500.533 343.396 500.391 343.4L500.366 343.4Z" fill="white"/>
<path d="M306.776 447.072C311.181 447.072 314.752 443.494 314.752 439.081C314.752 434.667 311.181 431.09 306.776 431.09C302.371 431.09 298.8 434.667 298.8 439.081C298.8 443.494 302.371 447.072 306.776 447.072Z" fill="#43A047"/>
<path d="M305.688 443.24C305.551 443.24 305.415 443.208 305.292 443.146C305.168 443.084 305.061 442.995 304.979 442.884L302.803 439.977C302.732 439.884 302.68 439.778 302.65 439.664C302.621 439.551 302.614 439.433 302.63 439.317C302.646 439.2 302.685 439.089 302.745 438.988C302.804 438.887 302.883 438.799 302.976 438.728C303.07 438.658 303.177 438.607 303.29 438.578C303.403 438.549 303.521 438.543 303.637 438.56C303.753 438.577 303.864 438.617 303.965 438.677C304.065 438.737 304.153 438.817 304.222 438.911L305.646 440.812L309.302 435.318C309.367 435.221 309.45 435.137 309.547 435.072C309.643 435.007 309.752 434.962 309.866 434.939C309.981 434.916 310.098 434.916 310.212 434.939C310.327 434.961 310.436 435.006 310.532 435.071C310.629 435.136 310.713 435.219 310.777 435.316C310.842 435.413 310.887 435.522 310.91 435.636C310.933 435.751 310.933 435.869 310.911 435.983C310.888 436.098 310.843 436.207 310.779 436.304L306.427 442.844C306.348 442.962 306.242 443.06 306.118 443.129C305.994 443.198 305.855 443.236 305.713 443.24L305.688 443.24Z" fill="white"/>
<path d="M616.176 351.497C614.618 351.497 613.096 351.035 611.801 350.168C610.506 349.301 609.496 348.069 608.9 346.627C608.304 345.186 608.148 343.599 608.452 342.069C608.756 340.539 609.506 339.133 610.607 338.029C611.709 336.926 613.112 336.175 614.639 335.87C616.167 335.566 617.75 335.722 619.189 336.319C620.628 336.916 621.858 337.928 622.723 339.225C623.588 340.522 624.05 342.048 624.05 343.608C624.05 345.701 623.221 347.707 621.744 349.187C620.267 350.666 618.264 351.497 616.176 351.497V351.497Z" fill="#E6E6E6"/>
<path d="M618.922 345.259L617.274 343.608L618.922 341.957C618.995 341.885 619.053 341.799 619.092 341.704C619.132 341.61 619.153 341.508 619.153 341.406C619.153 341.303 619.133 341.201 619.094 341.107C619.055 341.012 618.998 340.926 618.925 340.853C618.853 340.78 618.767 340.723 618.672 340.684C618.577 340.645 618.476 340.625 618.374 340.625C618.271 340.625 618.17 340.646 618.075 340.686C617.981 340.725 617.895 340.783 617.823 340.856L616.176 342.507L614.528 340.856C614.382 340.711 614.185 340.63 613.979 340.63C613.773 340.63 613.576 340.712 613.431 340.858C613.285 341.004 613.203 341.201 613.203 341.407C613.203 341.613 613.284 341.811 613.429 341.957L615.077 343.608L613.429 345.259C613.356 345.331 613.298 345.417 613.259 345.511C613.219 345.606 613.199 345.707 613.198 345.81C613.198 345.913 613.218 346.014 613.257 346.109C613.296 346.204 613.353 346.29 613.426 346.363C613.498 346.435 613.584 346.493 613.679 346.532C613.774 346.571 613.875 346.591 613.977 346.591C614.08 346.59 614.181 346.57 614.276 346.53C614.37 346.49 614.456 346.432 614.528 346.359L616.176 344.708L617.823 346.359C617.895 346.432 617.981 346.49 618.075 346.529C618.17 346.568 618.271 346.589 618.373 346.589C618.475 346.589 618.577 346.569 618.671 346.53C618.765 346.491 618.851 346.433 618.923 346.361C618.996 346.288 619.053 346.202 619.092 346.108C619.131 346.013 619.151 345.912 619.151 345.809C619.151 345.707 619.131 345.606 619.091 345.511C619.052 345.417 618.994 345.331 618.922 345.259V345.259Z" fill="white"/>
<path d="M412.227 446.697C410.67 446.697 409.147 446.234 407.852 445.367C406.557 444.5 405.548 443.268 404.952 441.826C404.356 440.385 404.2 438.799 404.504 437.268C404.807 435.738 405.557 434.332 406.659 433.229C407.76 432.125 409.163 431.374 410.691 431.07C412.218 430.765 413.802 430.921 415.241 431.519C416.68 432.116 417.909 433.127 418.775 434.424C419.64 435.722 420.102 437.247 420.102 438.807C420.102 440.9 419.272 442.906 417.795 444.386C416.319 445.866 414.316 446.697 412.227 446.697V446.697Z" fill="#E6E6E6"/>
<path d="M414.973 440.457L413.326 438.806L414.973 437.155C415.118 437.009 415.198 436.811 415.197 436.606C415.197 436.4 415.115 436.203 414.97 436.058C414.825 435.912 414.628 435.831 414.423 435.83C414.218 435.829 414.021 435.91 413.875 436.054L412.227 437.705L410.579 436.054C410.433 435.909 410.236 435.828 410.03 435.828C409.825 435.828 409.628 435.91 409.482 436.056C409.337 436.202 409.255 436.399 409.255 436.605C409.254 436.811 409.336 437.009 409.481 437.155L411.128 438.806L409.481 440.457C409.408 440.529 409.35 440.615 409.31 440.709C409.271 440.804 409.25 440.905 409.25 441.008C409.249 441.111 409.269 441.212 409.308 441.307C409.347 441.402 409.405 441.488 409.477 441.561C409.55 441.633 409.636 441.691 409.73 441.73C409.825 441.769 409.927 441.789 410.029 441.789C410.131 441.788 410.233 441.768 410.327 441.728C410.422 441.688 410.507 441.63 410.579 441.557L412.227 439.906L413.875 441.557C414.021 441.703 414.218 441.784 414.424 441.784C414.629 441.783 414.826 441.701 414.972 441.556C415.117 441.41 415.199 441.213 415.199 441.007C415.2 440.801 415.118 440.603 414.973 440.457Z" fill="white"/>
<path d="M501.319 211.66C508.999 211.66 515.224 205.422 515.224 197.728C515.224 190.034 508.999 183.797 501.319 183.797C493.639 183.797 487.413 190.034 487.413 197.728C487.413 205.422 493.639 211.66 501.319 211.66Z" fill="#A0616A"/>
<path opacity="0.5" d="M610.918 194.012H502.965C485.849 194.012 471.974 207.913 471.974 225.06V264.161C471.974 281.309 485.849 295.21 502.965 295.21H610.918C628.034 295.21 641.909 281.309 641.909 264.161V225.06C641.909 207.913 628.034 194.012 610.918 194.012Z" fill="white"/>
<path d="M610.918 296.372H502.964C494.441 296.362 486.269 292.965 480.242 286.927C474.214 280.889 470.824 272.702 470.814 264.162V225.061C470.824 216.522 474.214 208.335 480.242 202.296C486.269 196.258 494.441 192.861 502.964 192.852H610.918C619.442 192.861 627.614 196.258 633.641 202.296C639.668 208.335 643.058 216.522 643.068 225.061V264.162C643.058 272.702 639.668 280.889 633.641 286.927C627.614 292.965 619.442 296.362 610.918 296.372V296.372ZM502.964 195.173C495.055 195.182 487.472 198.334 481.88 203.937C476.287 209.54 473.141 217.137 473.132 225.061V264.162C473.141 272.086 476.287 279.683 481.88 285.286C487.472 290.889 495.055 294.041 502.964 294.05H610.918C618.827 294.041 626.41 290.889 632.003 285.286C637.595 279.683 640.741 272.086 640.75 264.162V225.061C640.741 217.137 637.595 209.54 632.003 203.937C626.41 198.334 618.827 195.182 610.918 195.173H502.964Z" fill="white"/>
<path d="M589.195 247.515C589.266 254.013 591.33 267.542 589.851 273.907L589.612 273.374C588.382 274.351 587.075 275.227 585.704 275.993C584.715 273.583 583.237 271.407 581.362 269.601C581.609 272.588 581.257 275.595 580.326 278.443C574.788 280.44 565.068 274.146 559.043 274.013C549.349 273.791 539.904 271.377 530.645 268.82C527.357 267.915 523.742 266.734 522.254 264C520.765 261.266 523.429 258.315 523.255 255.23C522.013 233.254 532.461 229.57 542.403 223.698C544.59 222.406 545.663 219.624 548.135 218.541C551.564 217.041 555.649 217.76 559.379 218.514C558.453 218.208 557.621 217.669 556.963 216.948C556.305 216.226 555.843 215.347 555.623 214.395C555.467 213.462 555.572 212.504 555.925 211.627C556.278 210.75 556.867 209.988 557.625 209.424C558.756 208.683 560.036 208.199 561.374 208.007C562.712 207.816 564.076 207.92 565.369 208.315C567.903 209.108 570.3 210.288 572.475 211.812C573.953 212.624 575.273 213.694 576.374 214.972C576.893 215.577 577.215 216.326 577.297 217.119C577.379 217.913 577.218 218.712 576.835 219.411C576.362 220.01 575.76 220.494 575.074 220.828C574.388 221.161 573.636 221.335 572.874 221.337C571.699 221.371 570.525 221.249 569.383 220.973C574.62 222.267 579.339 225.128 582.913 229.176C587.352 234.351 589.115 241.017 589.195 247.515Z" fill="#2F2E41"/>
<path d="M554.423 268.676C566.287 268.676 575.904 259.04 575.904 247.154C575.904 235.268 566.287 225.633 554.423 225.633C542.559 225.633 532.941 235.268 532.941 247.154C532.941 259.04 542.559 268.676 554.423 268.676Z" fill="#FFB6B6"/>
<path d="M577.863 243.903C575.337 246.965 571.58 246.806 568.24 246.317C567.186 246.166 566.131 245.998 565.077 245.802C564.891 245.208 564.678 244.613 564.439 244.036C563.45 241.627 561.972 239.45 560.097 237.644C560.294 240.005 560.112 242.382 559.557 244.684C557.598 244.231 555.649 243.725 553.709 243.166C551.992 242.886 550.448 241.957 549.396 240.569C548.344 239.181 547.864 237.441 548.056 235.709C545.264 237.84 542.225 239.686 539.036 239.722C537.237 239.675 535.502 239.052 534.083 237.945C532.663 236.838 531.636 235.305 531.15 233.57C530.409 230.76 530.279 227.824 530.769 224.959C531.194 221.542 532.151 217.787 534.455 216.411C536.306 215.292 538.442 216.091 540.347 216.997C544.544 219.015 548.523 221.46 552.22 224.293L552.264 225.226C553.221 220.636 556.384 217.094 559.831 216.739C562.153 216.508 564.421 217.582 566.61 218.665C569.47 219.93 572.13 221.608 574.504 223.645C577.187 226.09 579.05 229.305 579.838 232.851C580.662 236.695 580.042 241.257 577.863 243.903Z" fill="#2F2E41"/>
<path d="M556.598 214.037C556.818 214.056 556.277 213.931 556.453 214.005C556.367 213.966 556.284 213.919 556.205 213.866C556.192 213.858 556.017 213.716 556.131 213.815C555.868 213.61 555.671 213.333 555.561 213.018C555.317 212.252 555.204 211.45 555.225 210.647C555.269 209.59 555.089 208.537 554.698 207.555C554.582 207.289 554.405 207.055 554.181 206.87C553.958 206.686 553.694 206.557 553.411 206.493C553.128 206.43 552.835 206.435 552.554 206.507C552.274 206.578 552.014 206.716 551.796 206.907C551.184 207.733 550.888 208.753 550.962 209.78C550.907 210.773 551.012 211.769 551.273 212.729C551.723 214.308 552.621 215.722 553.859 216.798C555.288 218.052 557.082 218.811 558.976 218.962C559.236 218.956 559.489 218.875 559.704 218.728C559.919 218.58 560.086 218.374 560.186 218.133C560.285 217.892 560.313 217.627 560.265 217.371C560.217 217.114 560.096 216.878 559.916 216.689L557.538 214.427C557.288 214.18 556.951 214.042 556.6 214.043C556.249 214.044 555.912 214.184 555.664 214.433C555.416 214.682 555.276 215.019 555.275 215.37C555.274 215.722 555.411 216.06 555.658 216.31L558.036 218.572L558.976 216.299C558.584 216.264 558.196 216.184 557.821 216.063C557.415 215.949 557.027 215.779 556.668 215.556C556.317 215.363 555.987 215.133 555.686 214.868C555.493 214.698 555.309 214.519 555.134 214.33C555.07 214.262 555.008 214.192 554.947 214.121C554.952 214.126 554.697 213.806 554.807 213.952C554.532 213.576 554.292 213.174 554.092 212.753C554.021 212.604 553.963 212.449 553.917 212.29C553.833 212.029 553.764 211.763 553.711 211.494C553.61 210.929 553.579 210.353 553.62 209.779C553.632 209.536 553.656 209.294 553.693 209.054C553.726 208.927 553.751 208.798 553.767 208.668C553.772 208.344 553.723 208.84 553.555 208.916L552.884 209.097C552.775 209.088 552.669 209.055 552.574 209C552.48 208.944 552.399 208.868 552.337 208.777C552.309 208.666 552.317 208.685 552.361 208.836C552.411 209.013 552.45 209.192 552.478 209.374C552.529 209.797 552.559 210.221 552.567 210.647C552.576 211.548 552.68 212.446 552.879 213.325C553.065 214.208 553.525 215.01 554.193 215.616C554.86 216.222 555.702 216.601 556.598 216.7C556.95 216.697 557.286 216.556 557.535 216.307C557.783 216.058 557.924 215.721 557.927 215.369C557.92 215.018 557.778 214.683 557.53 214.435C557.282 214.187 556.948 214.044 556.598 214.037V214.037Z" fill="#2F2E41"/>
<path d="M503.772 219.529C508.177 219.529 511.748 215.951 511.748 211.538C511.748 207.125 508.177 203.547 503.772 203.547C499.367 203.547 495.796 207.125 495.796 211.538C495.796 215.951 499.367 219.529 503.772 219.529Z" fill="#43A047"/>
<path d="M502.684 215.693C502.546 215.693 502.41 215.661 502.287 215.599C502.164 215.537 502.057 215.448 501.974 215.337L499.798 212.431C499.727 212.337 499.676 212.231 499.646 212.117C499.617 212.004 499.61 211.886 499.626 211.77C499.642 211.654 499.681 211.542 499.74 211.441C499.8 211.34 499.879 211.252 499.972 211.181C500.066 211.111 500.172 211.06 500.286 211.031C500.399 211.002 500.517 210.996 500.633 211.013C500.749 211.03 500.86 211.07 500.96 211.13C501.061 211.19 501.148 211.27 501.218 211.364L502.641 213.265L506.298 207.771C506.428 207.575 506.631 207.439 506.862 207.392C507.093 207.346 507.332 207.394 507.528 207.524C507.724 207.655 507.86 207.858 507.906 208.09C507.952 208.321 507.905 208.561 507.774 208.757L503.422 215.297C503.344 215.415 503.238 215.513 503.113 215.582C502.989 215.651 502.85 215.689 502.709 215.693L502.684 215.693Z" fill="white"/>
<path d="M612.699 220.31C611.142 220.31 609.619 219.847 608.324 218.98C607.029 218.113 606.02 216.881 605.424 215.44C604.828 213.998 604.672 212.412 604.976 210.881C605.28 209.351 606.03 207.945 607.131 206.842C608.232 205.739 609.635 204.987 611.163 204.683C612.69 204.378 614.274 204.535 615.713 205.132C617.152 205.729 618.381 206.74 619.247 208.038C620.112 209.335 620.574 210.86 620.574 212.421C620.574 214.513 619.744 216.52 618.267 217.999C616.791 219.479 614.788 220.31 612.699 220.31Z" fill="#E6E6E6"/>
<path d="M615.445 214.071L613.798 212.42L615.445 210.769C615.518 210.697 615.576 210.612 615.616 210.517C615.655 210.422 615.676 210.321 615.676 210.218C615.677 210.116 615.657 210.014 615.618 209.919C615.579 209.824 615.521 209.738 615.449 209.665C615.376 209.593 615.29 209.535 615.196 209.496C615.101 209.457 615 209.437 614.897 209.438C614.795 209.438 614.693 209.458 614.599 209.498C614.505 209.538 614.419 209.596 614.347 209.669L612.699 211.32L611.051 209.669C610.906 209.524 610.708 209.442 610.502 209.442C610.297 209.443 610.1 209.525 609.954 209.67C609.809 209.816 609.727 210.014 609.727 210.22C609.727 210.426 609.808 210.623 609.953 210.769L611.601 212.42L609.953 214.071C609.88 214.143 609.822 214.229 609.782 214.324C609.743 214.418 609.722 214.52 609.722 214.622C609.722 214.725 609.741 214.827 609.78 214.922C609.82 215.016 609.877 215.103 609.949 215.175C610.022 215.248 610.108 215.305 610.203 215.344C610.297 215.383 610.399 215.403 610.501 215.403C610.603 215.403 610.705 215.382 610.799 215.342C610.894 215.303 610.979 215.245 611.051 215.172L612.699 213.521L614.347 215.172C614.419 215.244 614.505 215.302 614.599 215.341C614.693 215.381 614.794 215.401 614.897 215.401C614.999 215.401 615.1 215.381 615.195 215.342C615.289 215.303 615.375 215.246 615.447 215.173C615.519 215.101 615.577 215.015 615.616 214.92C615.655 214.826 615.675 214.724 615.675 214.622C615.674 214.52 615.654 214.418 615.615 214.324C615.575 214.229 615.518 214.143 615.445 214.071V214.071Z" fill="white"/>
<path d="M666.292 145.486H200.767C200.46 145.486 200.165 145.364 199.948 145.146C199.73 144.928 199.608 144.633 199.608 144.325C199.608 144.017 199.73 143.722 199.948 143.504C200.165 143.286 200.46 143.164 200.767 143.164H666.292C666.599 143.164 666.894 143.286 667.111 143.504C667.328 143.722 667.45 144.017 667.45 144.325C667.45 144.633 667.328 144.928 667.111 145.146C666.894 145.364 666.599 145.486 666.292 145.486Z" fill="white"/>
<path d="M252.936 126.91C257.881 126.91 261.891 122.803 261.891 117.738C261.891 112.673 257.881 108.566 252.936 108.566C247.99 108.566 243.981 112.673 243.981 117.738C243.981 122.803 247.99 126.91 252.936 126.91Z" fill="white"/>
<path d="M283.872 126.91C288.817 126.91 292.827 122.803 292.827 117.738C292.827 112.673 288.817 108.566 283.872 108.566C278.926 108.566 274.916 112.673 274.916 117.738C274.916 122.803 278.926 126.91 283.872 126.91Z" fill="white"/>
<path d="M314.807 126.91C319.753 126.91 323.763 122.803 323.763 117.738C323.763 112.673 319.753 108.566 314.807 108.566C309.862 108.566 305.852 112.673 305.852 117.738C305.852 122.803 309.862 126.91 314.807 126.91Z" fill="white"/>
<path d="M350.083 124.986C349.941 124.986 349.802 124.958 349.672 124.903C349.542 124.849 349.424 124.768 349.326 124.667L343.283 118.479C343.089 118.281 342.981 118.014 342.981 117.737C342.981 117.46 343.089 117.193 343.283 116.995L349.326 110.807C349.423 110.708 349.539 110.628 349.667 110.574C349.794 110.519 349.932 110.49 350.071 110.488C350.21 110.487 350.348 110.513 350.477 110.565C350.606 110.617 350.724 110.693 350.823 110.791C350.922 110.888 351.002 111.004 351.056 111.132C351.111 111.26 351.14 111.398 351.141 111.537C351.143 111.677 351.117 111.815 351.065 111.944C351.013 112.074 350.937 112.191 350.84 112.291L345.521 117.737L350.84 123.184C350.985 123.333 351.084 123.522 351.123 123.727C351.162 123.932 351.139 124.144 351.059 124.337C350.978 124.529 350.842 124.694 350.668 124.809C350.495 124.925 350.291 124.986 350.083 124.986V124.986Z" fill="white"/>
<path d="M360.236 124.986C360.028 124.986 359.824 124.925 359.65 124.809C359.477 124.694 359.341 124.529 359.26 124.337C359.179 124.144 359.157 123.932 359.196 123.727C359.235 123.522 359.333 123.333 359.479 123.184L364.797 117.737L359.479 112.291C359.283 112.09 359.174 111.819 359.177 111.537C359.18 111.256 359.295 110.988 359.496 110.791C359.696 110.594 359.967 110.485 360.248 110.488C360.529 110.491 360.797 110.606 360.993 110.807L367.035 116.995C367.229 117.193 367.337 117.46 367.337 117.737C367.337 118.014 367.229 118.281 367.035 118.479L360.993 124.667C360.895 124.768 360.777 124.849 360.647 124.903C360.517 124.958 360.377 124.986 360.236 124.986V124.986Z" fill="white"/>
<path d="M594.804 109.629H583.568C583.264 109.629 582.962 109.689 582.681 109.806C582.4 109.922 582.144 110.093 581.928 110.309C581.713 110.525 581.542 110.781 581.426 111.063C581.309 111.345 581.249 111.647 581.249 111.952V123.219C581.249 123.524 581.309 123.827 581.426 124.108C581.542 124.39 581.713 124.647 581.928 124.862C582.144 125.078 582.4 125.249 582.681 125.366C582.962 125.483 583.264 125.543 583.568 125.543H594.804C595.42 125.543 596.011 125.299 596.448 124.863C596.885 124.428 597.131 123.837 597.134 123.219V111.952C597.131 111.335 596.885 110.744 596.448 110.308C596.011 109.873 595.42 109.628 594.804 109.629V109.629Z" fill="white"/>
<path d="M567.271 109.629H556.036C555.731 109.629 555.43 109.689 555.148 109.806C554.867 109.922 554.611 110.093 554.396 110.309C554.18 110.525 554.01 110.781 553.893 111.063C553.776 111.345 553.717 111.647 553.717 111.952V123.219C553.717 123.524 553.776 123.827 553.893 124.108C554.01 124.39 554.18 124.647 554.396 124.862C554.611 125.078 554.867 125.249 555.148 125.366C555.43 125.483 555.731 125.543 556.036 125.543H567.271C567.887 125.543 568.479 125.299 568.916 124.863C569.352 124.428 569.599 123.837 569.601 123.219V111.952C569.599 111.335 569.352 110.744 568.916 110.308C568.479 109.873 567.887 109.628 567.271 109.629V109.629Z" fill="white"/>
<path d="M620.748 110.16H609.513C609.208 110.16 608.907 110.22 608.625 110.337C608.344 110.454 608.088 110.625 607.873 110.84C607.657 111.056 607.487 111.312 607.37 111.594C607.253 111.876 607.194 112.178 607.194 112.484V123.751C607.194 124.056 607.253 124.358 607.37 124.64C607.487 124.922 607.657 125.178 607.873 125.394C608.088 125.609 608.344 125.781 608.625 125.897C608.907 126.014 609.208 126.074 609.513 126.074H620.748C621.364 126.074 621.956 125.83 622.392 125.395C622.829 124.959 623.076 124.368 623.078 123.751V112.484C623.076 111.866 622.829 111.275 622.392 110.839C621.956 110.404 621.364 110.16 620.748 110.16V110.16Z" fill="white"/>
<path d="M497.993 114.445H408.183C407.811 114.443 407.441 114.514 407.096 114.656C406.751 114.797 406.437 115.005 406.172 115.269C405.908 115.532 405.698 115.845 405.555 116.19C405.412 116.535 405.338 116.904 405.338 117.278C405.338 117.652 405.412 118.021 405.555 118.366C405.698 118.711 405.908 119.024 406.172 119.287C406.437 119.551 406.751 119.759 407.096 119.9C407.441 120.042 407.811 120.113 408.183 120.111H497.993C498.74 120.106 499.454 119.805 499.981 119.275C500.507 118.744 500.802 118.026 500.802 117.278C500.802 116.53 500.507 115.812 499.981 115.281C499.454 114.751 498.74 114.45 497.993 114.445Z" fill="white"/>
</g>
<defs>
<filter id="filter0_d_129_2" x="-16.1937" y="0.804688" width="819.723" height="716.695" filterUnits="userSpaceOnUse" color-interpolation-filters="sRGB">
<feFlood flood-opacity="0" result="BackgroundImageFix"/>
<feColorMatrix in="SourceAlpha" type="matrix" values="0 0 0 0 0 0 0 0 0 0 0 0 0 0 0 0 0 0 127 0" result="hardAlpha"/>
<feOffset dy="30"/>
<feGaussianBlur stdDeviation="50"/>
<feComposite in2="hardAlpha" operator="out"/>
<feColorMatrix type="matrix" values="0 0 0 0 0.4 0 0 0 0 0.733333 0 0 0 0 0.415686 0 0 0 0.42 0"/>
<feBlend mode="normal" in2="BackgroundImageFix" result="effect1_dropShadow_129_2"/>
<feBlend mode="normal" in="SourceGraphic" in2="effect1_dropShadow_129_2" result="shape"/>
</filter>
<filter id="filter1_bd_129_2" x="129.903" y="52.082" width="620" height="520" filterUnits="userSpaceOnUse" color-interpolation-filters="sRGB">
<feFlood flood-opacity="0" result="BackgroundImageFix"/>
<feGaussianBlur in="BackgroundImage" stdDeviation="20"/>
<feComposite in2="SourceAlpha" operator="in" result="effect1_backgroundBlur_129_2"/>
<feColorMatrix in="SourceAlpha" type="matrix" values="0 0 0 0 0 0 0 0 0 0 0 0 0 0 0 0 0 0 127 0" result="hardAlpha"/>
<feOffset/>
<feGaussianBlur stdDeviation="2"/>
<feComposite in2="hardAlpha" operator="out"/>
<feColorMatrix type="matrix" values="0 0 0 0 0 0 0 0 0 0 0 0 0 0 0 0 0 0 0.25 0"/>
<feBlend mode="normal" in2="effect1_backgroundBlur_129_2" result="effect2_dropShadow_129_2"/>
<feBlend mode="normal" in="SourceGraphic" in2="effect2_dropShadow_129_2" result="shape"/>
</filter>
<linearGradient id="paint0_linear_129_2" x1="219.903" y1="92.082" x2="709.903" y2="522.082" gradientUnits="userSpaceOnUse">
<stop stop-color="#F2F2F2" stop-opacity="0.56"/>
<stop offset="1" stop-color="#F2F2F2" stop-opacity="0.4"/>
</linearGradient>
<clipPath id="clip0_129_2">
<rect width="540" height="440" fill="white" transform="translate(169.903 92.082)"/>
</clipPath>
</defs>
</svg>
