<svg width="48" height="48" viewBox="0 0 48 48" fill="none" xmlns="http://www.w3.org/2000/svg">
<path fill-rule="evenodd" clip-rule="evenodd" d="M27.4336 30.5826C29.8416 30.5826 31.8016 32.5286 31.8016 34.9206V41.0726C31.8016 41.5866 32.2136 41.9986 32.7416 42.0106H36.5536C39.5576 42.0106 41.9996 39.5986 41.9996 36.6346V19.1866C41.9856 18.1666 41.4996 17.2066 40.6656 16.5686L27.4796 6.05259C25.7096 4.65059 23.2336 4.65059 21.4576 6.05659L8.3616 16.5646C7.4956 17.2226 7.0096 18.1826 6.9996 19.2206V36.6346C6.9996 39.5986 9.4416 42.0106 12.4456 42.0106H16.2936C16.8356 42.0106 17.2756 41.5806 17.2756 41.0526C17.2756 40.9366 17.2896 40.8206 17.3136 40.7106V34.9206C17.3136 32.5426 19.2616 30.5986 21.6516 30.5826H27.4336ZM36.5536 45.0106H32.7056C30.5016 44.9586 28.8016 43.2286 28.8016 41.0726V34.9206C28.8016 34.1826 28.1876 33.5826 27.4336 33.5826H21.6616C20.9236 33.5866 20.3136 34.1886 20.3136 34.9206V41.0526C20.3136 41.2026 20.2936 41.3466 20.2516 41.4826C20.0356 43.4626 18.3436 45.0106 16.2936 45.0106H12.4456C7.7876 45.0106 3.9996 41.2526 3.9996 36.6346V19.2066C4.0196 17.2186 4.9356 15.3986 6.5176 14.2006L19.5876 3.71059C22.4656 1.43059 26.4756 1.43059 29.3476 3.70659L42.5116 14.2066C44.0576 15.3846 44.9736 17.2006 44.9996 19.1646V36.6346C44.9996 41.2526 41.2116 45.0106 36.5536 45.0106Z" fill="black"/>
</svg>
