<svg width="48" height="48" viewBox="0 0 48 48" fill="none" xmlns="http://www.w3.org/2000/svg">
<path fill-rule="evenodd" clip-rule="evenodd" d="M32.668 4C39.446 4 44 8.756 44 15.832V32.168C44 39.244 39.446 44 32.664 44H15.328C8.552 44 4 39.244 4 32.168V15.832C4 8.756 8.552 4 15.328 4H32.668ZM32.668 7H15.328C10.27 7 7 10.466 7 15.832V32.168C7 37.534 10.27 41 15.328 41H32.664C37.728 41 41 37.534 41 32.168V15.832C41 10.466 37.728 7 32.668 7ZM23.988 22.5C24.816 22.5 25.488 23.172 25.488 24V32C25.488 32.828 24.816 33.5 23.988 33.5C23.16 33.5 22.488 32.828 22.488 32V24C22.488 23.172 23.16 22.5 23.988 22.5ZM23.9978 14.4082C25.1038 14.4082 25.9978 15.3022 25.9978 16.4082C25.9978 17.5142 25.1038 18.4082 23.9978 18.4082C22.8918 18.4082 21.9878 17.5142 21.9878 16.4082C21.9878 15.3022 22.8738 14.4082 23.9778 14.4082H23.9978Z" fill="black"/>
</svg>
