<svg width="48" height="48" viewBox="0 0 48 48" fill="none" xmlns="http://www.w3.org/2000/svg">
<g clip-path="url(#clip0_526_2)">
<rect width="48" height="48" fill="white"/>
<g clip-path="url(#clip1_526_2)">
<path d="M44.3359 6.996C43.8107 6.35365 43.024 6 42.1205 6C41.6294 6 41.1091 6.10334 40.5743 6.30772L4.17563 20.2022C2.24399 20.9394 1.98384 22.0456 2.00057 22.6394C2.0173 23.2332 2.33979 24.323 4.31014 24.95C4.32195 24.9536 4.33376 24.9572 4.34557 24.9605L11.8956 27.1211L15.9787 38.7969C16.5354 40.3886 17.785 41.3774 19.2403 41.3774C20.1579 41.3774 21.0604 40.9929 21.8504 40.266L26.5204 35.966L33.2939 41.4201C33.2946 41.4207 33.2956 41.4211 33.2962 41.4217L33.3605 41.4736C33.3664 41.4781 33.3727 41.4831 33.3786 41.4877C34.1315 42.0716 34.9533 42.38 35.7561 42.3803H35.7564C37.3249 42.3803 38.5738 41.2193 38.9376 39.4228L44.9015 9.97449C45.141 8.79248 44.9402 7.7348 44.3359 6.996V6.996ZM14.4214 26.7107L28.9878 19.2692L19.9178 28.9067C19.7692 29.0645 19.6639 29.2578 19.612 29.4681L17.8631 36.5523L14.4214 26.7107ZM20.1435 38.4124C20.0831 38.4678 20.0224 38.5174 19.9617 38.563L21.5843 31.9912L24.5359 34.368L20.1435 38.4124ZM42.4322 9.4742L36.4683 38.9229C36.4109 39.2047 36.2275 39.8605 35.7561 39.8605C35.5231 39.8605 35.2305 39.7335 34.931 39.5029L27.2556 33.3228C27.2546 33.3218 27.2533 33.3208 27.252 33.3202L22.685 29.6426L35.8013 15.7054C36.2212 15.2593 36.2593 14.5759 35.8915 14.0858C35.5235 13.5957 34.8565 13.4415 34.3109 13.7203L12.7381 24.7413L5.08536 22.5518L41.4729 8.66158C41.7803 8.54414 41.9948 8.51953 42.1205 8.51953C42.1976 8.51953 42.3347 8.52872 42.3856 8.59138C42.4525 8.67307 42.5378 8.95159 42.4322 9.4742V9.4742Z" fill="black"/>
</g>
</g>
<defs>
<clipPath id="clip0_526_2">
<rect width="48" height="48" fill="white"/>
</clipPath>
<clipPath id="clip1_526_2">
<rect width="43" height="43" fill="white" transform="translate(2 6)"/>
</clipPath>
</defs>
</svg>
