<svg width="218" height="218" viewBox="0 0 218 218" fill="none" xmlns="http://www.w3.org/2000/svg">
<path d="M100.46 149.763L122.704 144.068C123.452 143.938 124.14 143.579 124.674 143.04L202.114 65.5578C204.172 63.4948 205.327 60.6999 205.327 57.786C205.327 54.8722 204.172 52.0772 202.114 50.0142L195.862 43.7411C194.841 42.7161 193.626 41.9044 192.288 41.3531C190.95 40.8017 189.516 40.5218 188.069 40.5296C186.625 40.5247 185.195 40.806 183.861 41.3572C182.527 41.9084 181.316 42.7187 180.297 43.7411L167.451 56.5871V32.3725C167.448 30.3473 167.046 28.3426 166.267 26.4732C165.488 24.6039 164.348 22.9065 162.912 21.4785C161.476 20.0505 159.773 18.9199 157.899 18.1514C156.025 17.3829 154.018 16.9917 151.993 17.0001H28.3723C24.2971 17.0058 20.3903 18.6272 17.5087 21.5088C14.6271 24.3905 13.0057 28.2972 13 32.3725V166.484C13.0057 170.559 14.6271 174.466 17.5087 177.348C20.3903 180.229 24.2971 181.851 28.3723 181.857H87.0783L124.053 208.298C124.613 208.699 125.272 208.939 125.959 208.99C126.646 209.041 127.333 208.902 127.946 208.587C128.559 208.273 129.074 207.796 129.433 207.209C129.792 206.621 129.983 205.946 129.984 205.258V181.857H151.993C156.068 181.851 159.975 180.229 162.857 177.348C165.738 174.466 167.36 170.559 167.365 166.484V124.028C167.365 123.035 166.971 122.082 166.268 121.379C165.565 120.676 164.612 120.282 163.619 120.282C162.625 120.282 161.672 120.676 160.969 121.379C160.267 122.082 159.872 123.035 159.872 124.028V166.484C159.872 167.519 159.668 168.543 159.272 169.499C158.876 170.455 158.296 171.324 157.564 172.055C156.833 172.787 155.964 173.367 155.008 173.763C154.052 174.159 153.028 174.363 151.993 174.363H120.221C119.227 174.363 118.274 174.758 117.572 175.46C116.869 176.163 116.474 177.116 116.474 178.11C116.474 179.103 116.869 180.056 117.572 180.759C118.274 181.462 119.227 181.857 120.221 181.857H122.49V197.978L90.3754 175.048C89.75 174.604 89.0019 174.364 88.2345 174.363H28.2867C27.252 174.363 26.2275 174.159 25.2716 173.763C24.3157 173.367 23.4471 172.787 22.7155 172.055C21.9839 171.324 21.4035 170.455 21.0076 169.499C20.6116 168.543 20.4078 167.519 20.4078 166.484V32.3725C20.4078 31.3305 20.6144 30.299 21.0157 29.3374C21.417 28.3759 22.005 27.5035 22.7457 26.7708C23.4864 26.038 24.3651 25.4595 25.3309 25.0686C26.2967 24.6777 27.3305 24.4823 28.3723 24.4936H151.993C154.083 24.4936 156.087 25.3237 157.564 26.8013C159.042 28.2788 159.872 30.2829 159.872 32.3725V64.1662L102.857 121.181C102.324 121.718 101.965 122.405 101.83 123.151L95.8778 145.139C95.6887 145.773 95.6765 146.448 95.8425 147.089C96.0085 147.731 96.3464 148.315 96.8198 148.778C97.2936 149.237 97.876 149.568 98.5126 149.74C99.1492 149.912 99.8191 149.92 100.46 149.763V149.763ZM179.248 55.3881L190.467 66.6069L121.955 135.119L110.736 123.921L179.248 55.3881ZM107.589 131.222L114.569 138.202L104.87 140.835L107.589 131.222ZM188.069 48.0231C188.53 48.0217 188.987 48.1119 189.414 48.2883C189.84 48.4647 190.227 48.7238 190.552 49.0508L196.804 55.3025C197.13 55.6267 197.388 56.0121 197.564 56.4365C197.741 56.8608 197.831 57.3158 197.831 57.7753C197.831 58.2348 197.741 58.6898 197.564 59.1142C197.388 59.5386 197.13 59.9239 196.804 60.2482L195.755 61.2973L184.558 50.0999L185.607 49.0508C185.927 48.7225 186.31 48.4623 186.733 48.2857C187.156 48.1091 187.61 48.0198 188.069 48.0231V48.0231Z" fill="#43A047"/>
<path d="M48.3477 54.8957H78.8782C79.8719 54.8957 80.8249 54.5009 81.5276 53.7983C82.2302 53.0956 82.625 52.1427 82.625 51.149C82.625 50.1553 82.2302 49.2023 81.5276 48.4996C80.8249 47.797 79.8719 47.4022 78.8782 47.4022H48.3477C47.354 47.4022 46.401 47.797 45.6983 48.4996C44.9957 49.2023 44.601 50.1553 44.601 51.149C44.601 52.1427 44.9957 53.0956 45.6983 53.7983C46.401 54.5009 47.354 54.8957 48.3477 54.8957V54.8957Z" fill="#43A047"/>
<path d="M118.658 54.8957C119.652 54.8957 120.605 54.5009 121.307 53.7983C122.01 53.0956 122.405 52.1427 122.405 51.149C122.405 50.1553 122.01 49.2023 121.307 48.4996C120.605 47.797 119.652 47.4022 118.658 47.4022H95.3212C94.3275 47.4022 93.3745 47.797 92.6719 48.4996C91.9692 49.2023 91.5745 50.1553 91.5745 51.149C91.5745 52.1427 91.9692 53.0956 92.6719 53.7983C93.3745 54.5009 94.3275 54.8957 95.3212 54.8957H118.658Z" fill="#43A047"/>
<path d="M48.3477 86.2612H62.7566C63.7503 86.2612 64.7033 85.8664 65.4059 85.1638C66.1086 84.4611 66.5033 83.5081 66.5033 82.5144C66.5033 81.5207 66.1086 80.5677 65.4059 79.8651C64.7033 79.1624 63.7503 78.7677 62.7566 78.7677H48.3477C47.354 78.7677 46.401 79.1624 45.6983 79.8651C44.9957 80.5677 44.601 81.5207 44.601 82.5144C44.601 83.5081 44.9957 84.4611 45.6983 85.1638C46.401 85.8664 47.354 86.2612 48.3477 86.2612V86.2612Z" fill="#43A047"/>
<path d="M93.9296 113.944C93.9296 112.951 93.5348 111.998 92.8322 111.295C92.1295 110.592 91.1765 110.198 90.1828 110.198H77.1442C76.1505 110.198 75.1975 110.592 74.4949 111.295C73.7922 111.998 73.3975 112.951 73.3975 113.944C73.3975 114.938 73.7922 115.891 74.4949 116.594C75.1975 117.296 76.1505 117.691 77.1442 117.691H90.1828C91.1765 117.691 92.1295 117.296 92.8322 116.594C93.5348 115.891 93.9296 114.938 93.9296 113.944V113.944Z" fill="#43A047"/>
<path d="M48.3477 149.078H84.3592C85.3529 149.078 86.3059 148.683 87.0085 147.981C87.7112 147.278 88.1059 146.325 88.1059 145.331C88.1059 144.338 87.7112 143.385 87.0085 142.682C86.3059 141.979 85.3529 141.584 84.3592 141.584H48.3477C47.354 141.584 46.401 141.979 45.6983 142.682C44.9957 143.385 44.601 144.338 44.601 145.331C44.601 146.325 44.9957 147.278 45.6983 147.981C46.401 148.683 47.354 149.078 48.3477 149.078V149.078Z" fill="#43A047"/>
<path d="M140.025 54.8957C141.019 54.8957 141.972 54.5009 142.674 53.7983C143.377 53.0956 143.772 52.1427 143.772 51.149C143.772 50.1553 143.377 49.2023 142.674 48.4996C141.972 47.797 141.019 47.4022 140.025 47.4022H132.831C131.838 47.4022 130.885 47.797 130.182 48.4996C129.479 49.2023 129.084 50.1553 129.084 51.149C129.084 52.1427 129.479 53.0956 130.182 53.7983C130.885 54.5009 131.838 54.8957 132.831 54.8957H140.025Z" fill="#43A047"/>
<path d="M122.405 82.5572C122.405 81.5635 122.01 80.6105 121.307 79.9079C120.605 79.2052 119.652 78.8105 118.658 78.8105H77.979C77.487 78.8105 76.9998 78.9074 76.5452 79.0957C76.0906 79.284 75.6776 79.56 75.3297 79.9079C74.9818 80.2558 74.7058 80.6688 74.5175 81.1234C74.3292 81.578 74.2323 82.0652 74.2323 82.5572C74.2323 83.0492 74.3292 83.5365 74.5175 83.991C74.7058 84.4456 74.9818 84.8586 75.3297 85.2066C75.6776 85.5545 76.0906 85.8305 76.5452 86.0187C76.9998 86.207 77.487 86.304 77.979 86.304H118.658C119.652 86.304 120.605 85.9092 121.307 85.2066C122.01 84.5039 122.405 83.5509 122.405 82.5572V82.5572Z" fill="#43A047"/>
<path d="M60.0163 110.198H52.0518C51.0581 110.198 50.1051 110.592 49.4024 111.295C48.6998 111.998 48.3051 112.951 48.3051 113.944C48.3051 114.938 48.6998 115.891 49.4024 116.594C50.1051 117.296 51.0581 117.691 52.0518 117.691H60.1233C61.117 117.691 62.07 117.296 62.7727 116.594C63.4753 115.891 63.8701 114.938 63.8701 113.944C63.8701 112.951 63.4753 111.998 62.7727 111.295C62.07 110.592 61.117 110.198 60.1233 110.198H60.0163Z" fill="#43A047"/>
</svg>
