<svg width="218" height="218" viewBox="0 0 218 218" fill="none" xmlns="http://www.w3.org/2000/svg">
<path d="M195.395 202.148H186.785V77.1264C186.785 71.3072 182.05 66.5731 176.232 66.5731H156.986C151.167 66.5731 146.433 71.3076 146.433 77.1264V202.148H124.569V133.771C124.569 127.952 119.835 123.218 114.016 123.218H94.7701C88.9509 123.218 84.2168 127.952 84.2168 133.771V202.148H62.3533V166.736C62.3533 160.917 57.6188 156.183 51.8 156.183H32.5539C26.7347 156.183 22.0006 160.918 22.0006 166.736V202.148H12.9258C10.7576 202.148 9 203.906 9 206.074C9 208.242 10.7576 210 12.9258 210H195.395C197.563 210 199.321 208.242 199.321 206.074C199.321 203.906 197.563 202.148 195.395 202.148ZM54.501 202.148H29.8518V166.736C29.8518 165.246 31.0637 164.035 32.5535 164.035H51.7993C53.2891 164.035 54.501 165.246 54.501 166.736V202.148ZM116.717 202.148H92.068V133.771C92.068 132.281 93.2798 131.069 94.7697 131.069H114.015C115.505 131.069 116.717 132.281 116.717 133.771V202.148ZM178.933 202.148H154.284V77.1264C154.284 75.6366 155.496 74.4247 156.986 74.4247H176.232C177.721 74.4247 178.933 75.6366 178.933 77.1264V202.148Z" fill="#43A047"/>
<path d="M176.114 13.1284C176.169 12.057 175.792 10.9676 174.974 10.1495C174.156 9.33134 173.066 8.95407 171.995 9.00942C171.932 9.00667 171.869 9 171.805 9H148.054C145.886 9 144.128 10.7576 144.128 12.9258C144.128 15.094 145.886 16.8516 148.054 16.8516H162.719L123.91 55.6611L109.275 41.0257C108.539 40.2897 107.54 39.8759 106.499 39.8759C105.458 39.8759 104.459 40.2897 103.723 41.0257L33.1498 111.6C31.6167 113.133 31.6167 115.618 33.1498 117.152C33.9165 117.918 34.9211 118.301 35.9257 118.301C36.9303 118.301 37.9353 117.918 38.7016 117.151L106.499 49.3531L121.134 63.9884C122.667 65.5214 125.153 65.5214 126.687 63.9884L168.272 22.4038V35.6769C168.272 37.8451 170.029 39.6026 172.197 39.6026C174.366 39.6026 176.123 37.8451 176.123 35.6769V13.3184C176.123 13.2544 176.117 13.1919 176.114 13.1284Z" fill="#43A047"/>
<path d="M103.926 131.999C106.094 131.999 107.852 130.241 107.852 128.073C107.852 125.905 106.094 124.147 103.926 124.147C101.758 124.147 100 125.905 100 128.073C100 130.241 101.758 131.999 103.926 131.999Z" fill="#43A047"/>
</svg>
