<svg width="218" height="218" viewBox="0 0 218 218" fill="none" xmlns="http://www.w3.org/2000/svg">
<path d="M57.6473 113.327C57.56 115.116 57.0745 116.693 56.1909 118.056C55.3182 119.42 54.0855 120.478 52.4927 121.231C50.9109 121.973 49.1 122.344 47.06 122.344C43.7 122.344 41.0491 121.253 39.1073 119.071C37.1764 116.878 36.2109 113.78 36.2109 109.776V108.516C36.2109 106.007 36.6473 103.815 37.52 101.938C38.3927 100.051 39.6473 98.5945 41.2836 97.5691C42.9309 96.5436 44.8345 96.0309 46.9945 96.0309C50.0927 96.0309 52.5855 96.8491 54.4727 98.4855C56.36 100.122 57.4345 102.375 57.6964 105.244H51.5436C51.5 103.684 51.1073 102.565 50.3655 101.889C49.6236 101.213 48.5 100.875 46.9945 100.875C45.4564 100.875 44.3273 101.447 43.6073 102.593C42.8982 103.738 42.5273 105.571 42.4945 108.091V109.907C42.4945 112.635 42.8327 114.587 43.5091 115.765C44.1964 116.933 45.38 117.516 47.06 117.516C48.4782 117.516 49.5582 117.184 50.3 116.518C51.0527 115.853 51.4564 114.789 51.5109 113.327H57.6473ZM82.2377 109.727C82.2377 112.225 81.7741 114.435 80.8468 116.355C79.9195 118.275 78.5995 119.753 76.8868 120.789C75.185 121.825 73.2486 122.344 71.0777 122.344C68.8959 122.344 66.9595 121.847 65.2686 120.855C63.5777 119.851 62.2577 118.416 61.3086 116.551C60.3705 114.685 59.8795 112.547 59.8359 110.136V108.696C59.8359 106.187 60.2941 103.978 61.2105 102.069C62.1377 100.149 63.4577 98.6655 65.1705 97.6182C66.8941 96.5709 68.8468 96.0473 71.0286 96.0473C73.1995 96.0473 75.1359 96.5655 76.8377 97.6018C78.5395 98.6382 79.8595 100.111 80.7977 102.02C81.7468 103.918 82.2268 106.095 82.2377 108.549V109.727ZM75.9541 108.664C75.9541 106.122 75.5286 104.191 74.6777 102.871C73.8268 101.551 72.6105 100.891 71.0286 100.891C67.9414 100.891 66.3105 103.209 66.1359 107.845L66.1195 109.727C66.1195 112.236 66.5341 114.167 67.3632 115.52C68.1923 116.862 69.4305 117.533 71.0777 117.533C72.6268 117.533 73.8214 116.873 74.6614 115.553C75.5123 114.222 75.9432 112.318 75.9541 109.842V108.664ZM94.9187 112.967H91.5805V122H85.4114V96.4073H95.4914C98.5241 96.4073 100.897 97.0836 102.61 98.4364C104.322 99.7782 105.179 101.682 105.179 104.147C105.179 105.925 104.813 107.404 104.082 108.582C103.362 109.749 102.239 110.693 100.711 111.413L106.046 121.738V122H99.435L94.9187 112.967ZM91.5805 108.205H95.4914C96.6587 108.205 97.5368 107.9 98.1259 107.289C98.7259 106.667 99.0259 105.805 99.0259 104.704C99.0259 103.602 98.7259 102.74 98.1259 102.118C97.5259 101.485 96.6477 101.169 95.4914 101.169H91.5805V108.205ZM130.578 109.727C130.578 112.225 130.114 114.435 129.187 116.355C128.259 118.275 126.939 119.753 125.227 120.789C123.525 121.825 121.588 122.344 119.418 122.344C117.236 122.344 115.299 121.847 113.608 120.855C111.918 119.851 110.598 118.416 109.648 116.551C108.71 114.685 108.219 112.547 108.176 110.136V108.696C108.176 106.187 108.634 103.978 109.55 102.069C110.478 100.149 111.798 98.6655 113.51 97.6182C115.234 96.5709 117.187 96.0473 119.368 96.0473C121.539 96.0473 123.476 96.5655 125.178 97.6018C126.879 98.6382 128.199 100.111 129.138 102.02C130.087 103.918 130.567 106.095 130.578 108.549V109.727ZM124.294 108.664C124.294 106.122 123.868 104.191 123.018 102.871C122.167 101.551 120.95 100.891 119.368 100.891C116.281 100.891 114.65 103.209 114.476 107.845L114.459 109.727C114.459 112.236 114.874 114.167 115.703 115.52C116.532 116.862 117.77 117.533 119.418 117.533C120.967 117.533 122.161 116.873 123.001 115.553C123.852 114.222 124.283 112.318 124.294 109.842V108.664ZM155.122 122H149.002L139.92 106.078V122H133.751V96.4073H139.92L148.969 112.329V96.4073H155.122V122ZM173.576 117.222H165.116L163.643 122H157.049L166.425 96.4073H172.234L181.692 122H175.065L173.576 117.222ZM166.589 112.46H172.087L169.338 103.575L166.589 112.46Z" fill="#43A047"/>
<path d="M109.5 190.922C77.3653 190.922 47.9638 172.047 34.5983 142.84L40.592 140.097C52.8893 166.963 79.9336 184.328 109.5 184.328C139.066 184.328 166.111 166.963 178.405 140.097L184.398 142.84C171.036 172.047 141.635 190.922 109.5 190.922Z" fill="#43A047"/>
<path d="M178.405 76.9028C166.111 50.0365 139.066 32.6719 109.5 32.6719C79.9336 32.6719 52.8893 50.0365 40.5953 76.9028L34.6016 74.1598C47.9638 44.9527 77.3653 26.0781 109.5 26.0781C141.635 26.0781 171.036 44.9527 184.402 74.1598L178.405 76.9028Z" fill="#43A047"/>
<path d="M106.203 6.29688H112.797V29.375H106.203V6.29688Z" fill="#43A047"/>
<path d="M99.6094 3H119.391V9.59375H99.6094V3Z" fill="#43A047"/>
<path d="M106.203 187.625H112.797V210.703H106.203V187.625Z" fill="#43A047"/>
<path d="M99.6094 207.406H119.391V214H99.6094V207.406Z" fill="#43A047"/>
<path d="M136.759 34.1157L145.599 12.7884L151.692 15.3138L142.852 36.6411L136.759 34.1157Z" fill="#43A047"/>
<path d="M138.259 13.324L140.784 7.23135L159.062 14.8076L156.537 20.9002L138.259 13.324Z" fill="#43A047"/>
<path d="M67.3853 201.686L76.2254 180.359L82.3181 182.885L73.4779 204.212L67.3853 201.686Z" fill="#43A047"/>
<path d="M60.0298 202.238L62.5552 196.146L80.8331 203.722L78.3077 209.815L60.0298 202.238Z" fill="#43A047"/>
<path d="M163.101 50.233L179.415 33.9191L184.077 38.5808L167.763 54.8948L163.101 50.233Z" fill="#43A047"/>
<path d="M172.424 31.5829L177.086 26.9205L191.076 40.9102L186.414 45.5727L172.424 31.5829Z" fill="#43A047"/>
<path d="M34.88 178.423L51.1939 162.109L55.8557 166.771L39.5418 183.084L34.88 178.423Z" fill="#43A047"/>
<path d="M27.8859 176.089L32.5483 171.426L46.5381 185.416L41.8757 190.079L27.8859 176.089Z" fill="#43A047"/>
<path d="M163.086 166.783L167.747 162.121L184.061 178.435L179.399 183.097L163.086 166.783Z" fill="#43A047"/>
<path d="M172.406 185.432L186.396 171.442L191.059 176.104L177.069 190.094L172.406 185.432Z" fill="#43A047"/>
<path d="M34.8956 38.5651L39.5574 33.9033L55.8713 50.2172L51.2095 54.879L34.8956 38.5651Z" fill="#43A047"/>
<path d="M27.9003 40.8966L41.8901 26.9068L46.5525 31.5693L32.5628 45.5591L27.9003 40.8966Z" fill="#43A047"/>
<path d="M136.812 182.83L142.905 180.304L151.745 201.631L145.652 204.157L136.812 182.83Z" fill="#43A047"/>
<path d="M138.27 203.674L156.548 196.097L159.074 202.19L140.796 209.766L138.27 203.674Z" fill="#43A047"/>
<path d="M67.3511 15.3125L73.4437 12.7871L82.2839 34.1143L76.1913 36.6397L67.3511 15.3125Z" fill="#43A047"/>
<path d="M60.0023 14.8099L78.2802 7.23372L80.8056 13.3263L62.5277 20.9026L60.0023 14.8099Z" fill="#43A047"/>
<path d="M198.516 144.766H20.4844C11.3949 144.766 4 137.371 4 128.281V88.7188C4 79.6293 11.3949 72.2344 20.4844 72.2344H198.516C207.605 72.2344 215 79.6293 215 88.7188V128.281C215 137.371 207.605 144.766 198.516 144.766ZM20.4844 78.8281C15.0313 78.8281 10.5938 83.2657 10.5938 88.7188V128.281C10.5938 133.734 15.0313 138.172 20.4844 138.172H198.516C203.969 138.172 208.406 133.734 208.406 128.281V88.7188C208.406 83.2657 203.969 78.8281 198.516 78.8281H20.4844Z" fill="#43A047"/>
<path d="M189.472 130.489H182.031V123.895H189.472C192.641 123.895 195.219 121.317 195.219 118.149V109.059H201.812V118.149C201.812 124.953 196.277 130.489 189.472 130.489Z" fill="#43A047"/>
</svg>
