<svg width="48" height="48" viewBox="0 0 48 48" fill="none" xmlns="http://www.w3.org/2000/svg">
<path fill-rule="evenodd" clip-rule="evenodd" d="M32.872 2C40.126 2 45 7.092 45 14.67V32.33C45 39.908 40.126 45 32.872 45H14.128C6.874 45 2 39.908 2 32.33V14.67C2 7.092 6.874 2 14.128 2H32.872ZM32.872 5H14.128C8.584 5 5 8.794 5 14.67V32.33C5 38.206 8.584 42 14.128 42H32.872C38.418 42 42 38.206 42 32.33V14.67C42 8.794 38.418 5 32.872 5ZM14.2422 18.405C15.0702 18.405 15.7422 19.077 15.7422 19.905V33.625C15.7422 34.453 15.0702 35.125 14.2422 35.125C13.4142 35.125 12.7422 34.453 12.7422 33.625V19.905C12.7422 19.077 13.4142 18.405 14.2422 18.405ZM23.5762 11.837C24.4042 11.837 25.0762 12.509 25.0762 13.337V33.623C25.0762 34.451 24.4042 35.123 23.5762 35.123C22.7482 35.123 22.0762 34.451 22.0762 33.623V13.337C22.0762 12.509 22.7482 11.837 23.5762 11.837ZM32.7568 25.655C33.5848 25.655 34.2568 26.327 34.2568 27.155V33.623C34.2568 34.451 33.5848 35.123 32.7568 35.123C31.9288 35.123 31.2568 34.451 31.2568 33.623V27.155C31.2568 26.327 31.9288 25.655 32.7568 25.655Z" fill="black"/>
</svg>
