<svg width="28" height="29" viewBox="0 0 28 29" fill="none" xmlns="http://www.w3.org/2000/svg">
<path fill-rule="evenodd" clip-rule="evenodd" d="M14.5 12.6471C16.2058 12.6471 17.5882 14.0295 17.5882 15.7353C17.5882 17.4411 16.2058 18.8236 14.5 18.8236C12.7942 18.8236 11.4117 17.4411 11.4117 15.7353C11.4117 14.0295 12.7942 12.6471 14.5 12.6471Z" stroke="black" stroke-width="1.5" stroke-linecap="round" stroke-linejoin="round"/>
<path fill-rule="evenodd" clip-rule="evenodd" d="M24.5899 9.86795C23.7455 8.39517 21.8762 7.89122 20.4152 8.74171C19.1444 9.47993 17.5562 8.55623 17.5562 7.07857C17.5562 5.37883 16.1873 4 14.4997 4C12.8122 4 11.4432 5.37883 11.4432 7.07857C11.4432 8.55623 9.85501 9.47993 8.58541 8.74171C7.12318 7.89122 5.25391 8.39517 4.40953 9.86795C3.56636 11.3407 4.06669 13.2235 5.52891 14.0728C6.79851 14.8122 6.79851 16.6584 5.52891 17.3978C4.06669 18.2483 3.56636 20.1311 4.40953 21.6026C5.25391 23.0754 7.12318 23.5794 8.58419 22.7301H8.58541C9.85501 21.9907 11.4432 22.9144 11.4432 24.392C11.4432 26.0918 12.8122 27.4706 14.4997 27.4706C16.1873 27.4706 17.5562 26.0918 17.5562 24.392C17.5562 22.9144 19.1444 21.9907 20.4152 22.7301C21.8762 23.5794 23.7455 23.0754 24.5899 21.6026C25.4343 20.1311 24.9327 18.2483 23.4717 17.3978H23.4705C22.2009 16.6584 22.2009 14.8122 23.4717 14.0728C24.9327 13.2235 25.4343 11.3407 24.5899 9.86795Z" stroke="black" stroke-width="1.5" stroke-linecap="round" stroke-linejoin="round"/>
</svg>
