<svg width="479" height="207" viewBox="0 0 479 207" fill="none" xmlns="http://www.w3.org/2000/svg">
<path d="M388.438 122.906C388.438 119.336 391.336 116.438 394.906 116.438C398.477 116.438 401.375 119.336 401.375 122.906C401.375 126.477 398.477 129.375 394.906 129.375C391.336 129.375 388.438 126.477 388.438 122.906Z" fill="white"/>
<path d="M369.031 77.625C369.031 74.0543 371.929 71.1562 375.5 71.1562C379.071 71.1562 381.969 74.0543 381.969 77.625C381.969 81.1957 379.071 84.0938 375.5 84.0938C371.929 84.0938 369.031 81.1957 369.031 77.625Z" fill="white"/>
<path d="M343.156 113.203C343.156 107.847 347.503 103.5 352.859 103.5C358.216 103.5 362.562 107.847 362.562 113.203C362.562 118.559 358.216 122.906 352.859 122.906C347.503 122.906 343.156 118.559 343.156 113.203Z" fill="white"/>
<path d="M296.206 134.343C293.114 136.128 292.053 140.087 293.839 143.179L300.307 154.383C302.086 157.462 306.039 158.543 309.144 156.751C312.236 154.965 313.297 151.006 311.511 147.914L323.071 141.239C327.062 146.763 331.894 151.621 337.393 155.651L331.344 164.546C329.333 167.502 330.102 171.525 333.052 173.531C336.002 175.536 340.025 174.786 342.037 171.823L348.558 162.23C354.91 165.154 361.78 167.133 369.031 167.858V181.125C365.461 181.125 362.563 184.023 362.563 187.594C362.563 191.164 365.461 194.062 369.031 194.062H381.969C385.54 194.062 388.438 191.164 388.438 187.594C388.438 184.023 385.54 181.125 381.969 181.125V167.858C389.22 167.133 396.09 165.16 402.442 162.23L408.963 171.823C410.981 174.786 414.998 175.536 417.948 173.531C420.904 171.519 421.667 167.502 419.656 164.546L413.607 155.651C419.106 151.621 423.938 146.763 427.929 141.239L439.489 147.914C437.703 151.013 438.764 154.965 441.856 156.751C444.961 158.536 448.914 157.456 450.693 154.383L457.161 143.179C458.947 140.081 457.886 136.128 454.794 134.343C451.682 132.551 447.743 133.619 445.958 136.711L434.424 130.048C437.244 123.805 439.152 117.065 439.858 109.969H446.656C450.227 109.969 453.125 107.071 453.125 103.5C453.125 99.9293 450.227 97.0312 446.656 97.0312H439.858C439.152 89.9286 437.244 83.1946 434.424 76.9522L445.958 70.2894C447.762 73.4009 451.715 74.4294 454.794 72.657C457.886 70.8716 458.947 66.9128 457.161 63.8207L450.693 52.6168C448.901 49.5183 444.948 48.4574 441.856 50.2493C438.764 52.0346 437.703 55.9935 439.489 59.0856L427.929 65.7613C423.938 60.237 419.106 55.379 413.607 51.3489L419.656 42.4544C421.667 39.4982 420.898 35.4746 417.948 33.4693C414.992 31.4575 410.968 32.2273 408.963 35.1771L402.442 44.7638C396.09 41.8399 389.22 39.8604 381.969 39.1424V25.875C385.54 25.875 388.438 22.977 388.438 19.4062C388.438 15.8355 385.54 12.9375 381.969 12.9375H369.031C365.461 12.9375 362.563 15.8355 362.563 19.4062C362.563 22.977 365.461 25.875 369.031 25.875V39.1424C361.78 39.8669 354.91 41.8399 348.558 44.7702L342.037 35.1771C340.032 32.2273 336.008 31.4575 333.052 33.4693C330.096 35.4746 329.326 39.4917 331.338 42.4479L337.386 51.3425C331.888 55.3725 327.056 60.2305 323.064 65.7548L311.511 59.0856C313.297 55.987 312.236 52.0346 309.144 50.2493C306.039 48.4574 302.093 49.5247 300.307 52.6168L293.839 63.8207C292.053 66.9192 293.114 70.8716 296.206 72.657C299.285 74.4294 303.238 73.4009 305.042 70.2894L316.576 76.9522C313.749 83.1946 311.848 89.9286 311.142 97.0312H304.344C300.773 97.0312 297.875 99.9293 297.875 103.5C297.875 107.071 300.773 109.969 304.344 109.969H311.142C311.848 117.071 313.756 123.805 316.576 130.048L305.042 136.711C303.244 133.612 299.305 132.551 296.206 134.343V134.343ZM375.5 51.75C404.034 51.75 427.25 74.9663 427.25 103.5C427.25 132.034 404.034 155.25 375.5 155.25C346.966 155.25 323.75 132.034 323.75 103.5C323.75 74.9663 346.966 51.75 375.5 51.75Z" fill="white"/>
<path d="M10.556 164.556H13.508V171.972C13.508 172.884 13.724 173.724 14.156 174.492C14.612 175.26 15.224 175.86 15.992 176.292C16.76 176.748 17.6 176.976 18.512 176.976H26.432C27.272 176.976 27.98 176.688 28.556 176.112C29.132 175.536 29.42 174.828 29.42 173.988C29.42 173.172 29.12 172.464 28.52 171.864C27.944 171.288 27.248 171 26.432 171H20.672V168.48H26.396C27.524 168.48 28.556 168.708 29.492 169.164C30.428 169.62 31.16 170.256 31.688 171.072C32.24 171.912 32.516 172.884 32.516 173.988C32.516 175.092 32.24 176.112 31.688 177.048C31.136 178.008 30.392 178.764 29.456 179.316C28.52 179.868 27.5 180.144 26.396 180.144H18.512C17.072 180.144 15.74 179.784 14.516 179.064C13.292 178.344 12.32 177.372 11.6 176.148C10.904 174.924 10.556 173.58 10.556 172.116V164.556ZM19.664 171V167.868H34.46C34.7 167.868 34.82 167.988 34.82 168.228V170.64C34.82 170.88 34.7 171 34.46 171H19.664ZM34.1127 168.228C34.1127 167.988 34.2327 167.868 34.4727 167.868H36.5607C37.3767 167.868 38.0847 167.58 38.6847 167.004C39.2847 166.404 39.5847 165.696 39.5847 164.88V159.336H42.5367V164.88C42.5367 165.72 42.8247 166.428 43.4007 167.004C44.0007 167.58 44.7207 167.868 45.5607 167.868H47.6127C47.8527 167.868 47.9727 167.988 47.9727 168.228V170.64C47.9727 170.88 47.8527 171 47.6127 171H45.5607C44.5767 171 43.6887 170.772 42.8967 170.316C42.1047 169.86 41.4807 169.236 41.0247 168.444C40.5927 169.236 39.9807 169.86 39.1887 170.316C38.4207 170.772 37.5447 171 36.5607 171H34.4727C34.2327 171 34.1127 170.88 34.1127 170.64V168.228ZM36.9567 152.676H40.1607V155.88H36.9567V152.676ZM42.0327 152.676H45.2007V155.88H42.0327V152.676ZM67.3131 171C66.2331 171 65.2731 170.736 64.4331 170.208C63.6171 169.656 62.9811 168.924 62.5251 168.012C62.0931 167.1 61.8771 166.092 61.8771 164.988V159.336H64.2531V164.88C64.2531 165.696 64.5531 166.404 65.1531 167.004C65.7531 167.58 66.4731 167.868 67.3131 167.868H69.5811V158.22H72.5331V171H67.3131ZM47.6211 171C47.3811 171 47.2611 170.88 47.2611 170.64V168.228C47.2611 167.988 47.3811 167.868 47.6211 167.868H49.2771C50.1171 167.868 50.8251 167.58 51.4011 167.004C52.0011 166.404 52.3011 165.696 52.3011 164.88V159.336H54.7131V164.988C54.7131 166.092 54.4851 167.1 54.0291 168.012C53.5971 168.924 52.9611 169.656 52.1211 170.208C51.3051 170.736 50.3571 171 49.2771 171H47.6211ZM58.3131 171.072C57.2331 171.072 56.2731 170.808 55.4331 170.28C54.6171 169.728 53.9811 168.996 53.5251 168.084C53.0691 167.172 52.8411 166.164 52.8411 165.06V159.336H55.2891V164.952C55.2891 165.792 55.5771 166.5 56.1531 167.076C56.7531 167.652 57.4731 167.94 58.3131 167.94C59.1291 167.94 59.8251 167.652 60.4011 167.076C61.0011 166.476 61.3011 165.768 61.3011 164.952V159.336H63.7131V165.06C63.7131 166.164 63.4851 167.172 63.0291 168.084C62.5971 168.996 61.9611 169.728 61.1211 170.28C60.3051 170.808 59.3691 171.072 58.3131 171.072ZM70.552 177.948C72.328 176.964 73.6 176.196 74.368 175.644C75.136 175.092 75.712 174.408 76.096 173.592C76.504 172.8 76.708 171.708 76.708 170.316V159.336H79.66V170.316C79.66 172.092 79.396 173.556 78.868 174.708C78.34 175.86 77.524 176.844 76.42 177.66C75.316 178.5 73.732 179.424 71.668 180.432L70.552 177.948ZM83.7806 167.868H91.9166C92.7086 167.868 93.3686 167.616 93.8966 167.112C94.4486 166.608 94.7246 165.972 94.7246 165.204C94.7246 164.988 94.6526 164.64 94.5086 164.16L91.3406 155.448L94.1486 154.44L98.2526 165.744C98.4686 166.368 98.8526 166.884 99.4046 167.292C99.9566 167.676 100.569 167.868 101.241 167.868H101.745C101.985 167.868 102.105 167.988 102.105 168.228V170.64C102.105 170.88 101.985 171 101.745 171H101.133C100.101 171 99.1766 170.76 98.3606 170.28C97.5446 169.776 96.9446 169.14 96.5606 168.372C95.5286 170.124 93.9806 171 91.9166 171H83.7806V167.868ZM101.402 168.228C101.402 167.988 101.522 167.868 101.762 167.868H103.562C104.402 167.868 105.11 167.58 105.686 167.004C106.286 166.404 106.586 165.696 106.586 164.88V159.336H109.538V164.88C109.538 165.696 109.826 166.404 110.402 167.004C111.002 167.58 111.722 167.868 112.562 167.868H114.362C114.602 167.868 114.722 167.988 114.722 168.228V170.64C114.722 170.88 114.602 171 114.362 171H112.562C111.578 171 110.69 170.772 109.898 170.316C109.13 169.86 108.518 169.236 108.062 168.444C107.63 169.236 107.018 169.86 106.226 170.316C105.434 170.772 104.546 171 103.562 171H101.762C101.522 171 101.402 170.88 101.402 170.64V168.228ZM106.442 152.748H109.646V155.916H106.442V152.748ZM114.348 171C114.108 171 113.988 170.88 113.988 170.64V168.228C113.988 167.988 114.108 167.868 114.348 167.868H117.012C117.852 167.868 118.56 167.568 119.136 166.968C119.736 166.368 120.036 165.636 120.036 164.772V158.22H122.988V164.952C122.988 166.056 122.712 167.076 122.16 168.012C121.632 168.924 120.912 169.656 120 170.208C119.088 170.736 118.08 171 116.976 171H114.348ZM114.672 151.632H117.84V154.8H114.672V151.632ZM119.712 151.632H122.916V154.8H119.712V151.632ZM137.213 177.804C139.517 176.82 141.197 176.028 142.253 175.428C143.333 174.828 144.113 174.192 144.593 173.52C145.073 172.872 145.313 172.032 145.313 171H141.461C140.189 171 139.013 170.7 137.933 170.1C136.877 169.5 136.025 168.684 135.377 167.652C134.753 166.62 134.441 165.468 134.441 164.196C134.441 162.924 134.753 161.76 135.377 160.704C136.025 159.624 136.877 158.772 137.933 158.148C139.013 157.5 140.189 157.176 141.461 157.176C142.709 157.176 143.861 157.5 144.917 158.148C145.973 158.772 146.801 159.624 147.401 160.704C148.001 161.76 148.301 162.924 148.301 164.196V169.884C148.301 171.78 147.941 173.316 147.221 174.492C146.501 175.668 145.469 176.652 144.125 177.444C142.805 178.26 140.801 179.256 138.113 180.432L137.213 177.804ZM145.313 168.012V164.16C145.313 163.08 144.941 162.168 144.197 161.424C143.453 160.656 142.541 160.272 141.461 160.272C140.381 160.272 139.469 160.656 138.725 161.424C137.981 162.168 137.609 163.08 137.609 164.16C137.609 165.24 137.981 166.152 138.725 166.896C139.469 167.64 140.381 168.012 141.461 168.012H145.313ZM160.286 164.556H163.238V171.972C163.238 172.884 163.454 173.724 163.886 174.492C164.342 175.26 164.954 175.86 165.722 176.292C166.49 176.748 167.33 176.976 168.242 176.976H176.162C177.002 176.976 177.71 176.688 178.286 176.112C178.862 175.536 179.15 174.828 179.15 173.988C179.15 173.172 178.85 172.464 178.25 171.864C177.674 171.288 176.978 171 176.162 171H170.402V168.48H176.126C177.254 168.48 178.286 168.708 179.222 169.164C180.158 169.62 180.89 170.256 181.418 171.072C181.97 171.912 182.246 172.884 182.246 173.988C182.246 175.092 181.97 176.112 181.418 177.048C180.866 178.008 180.122 178.764 179.186 179.316C178.25 179.868 177.23 180.144 176.126 180.144H168.242C166.802 180.144 165.47 179.784 164.246 179.064C163.022 178.344 162.05 177.372 161.33 176.148C160.634 174.924 160.286 173.58 160.286 172.116V164.556ZM169.394 171V167.868H184.19C184.43 167.868 184.55 167.988 184.55 168.228V170.64C184.55 170.88 184.43 171 184.19 171H169.394ZM183.843 168.228C183.843 167.988 183.963 167.868 184.203 167.868H186.291C187.107 167.868 187.815 167.58 188.415 167.004C189.015 166.404 189.315 165.696 189.315 164.88V159.336H192.267V164.88C192.267 165.72 192.555 166.428 193.131 167.004C193.731 167.58 194.451 167.868 195.291 167.868H197.343C197.583 167.868 197.703 167.988 197.703 168.228V170.64C197.703 170.88 197.583 171 197.343 171H195.291C194.307 171 193.419 170.772 192.627 170.316C191.835 169.86 191.211 169.236 190.755 168.444C190.323 169.236 189.711 169.86 188.919 170.316C188.151 170.772 187.275 171 186.291 171H184.203C183.963 171 183.843 170.88 183.843 170.64V168.228ZM186.687 152.676H189.891V155.88H186.687V152.676ZM191.763 152.676H194.931V155.88H191.763V152.676ZM209.16 171.072C207.888 171.072 206.736 170.76 205.704 170.136C204.672 169.512 203.856 168.66 203.256 167.58C202.68 166.5 202.392 165.324 202.392 164.052V160.236H200.268V157.248H209.16C210.432 157.248 211.608 157.548 212.688 158.148C213.768 158.748 214.62 159.564 215.244 160.596C215.868 161.628 216.18 162.78 216.18 164.052C216.18 165.324 215.868 166.5 215.244 167.58C214.62 168.66 213.768 169.512 212.688 170.136C211.608 170.76 210.432 171.072 209.16 171.072ZM197.352 171C197.112 171 196.992 170.88 196.992 170.64V168.228C196.992 167.988 197.112 167.868 197.352 167.868H199.368C200.208 167.868 200.916 167.58 201.492 167.004C202.092 166.404 202.392 165.696 202.392 164.88V160.992H204.768V164.988C204.768 166.092 204.54 167.1 204.084 168.012C203.652 168.924 203.016 169.656 202.176 170.208C201.36 170.736 200.424 171 199.368 171H197.352ZM209.16 167.94C210.24 167.94 211.152 167.568 211.896 166.824C212.664 166.056 213.048 165.132 213.048 164.052C213.048 162.996 212.664 162.096 211.896 161.352C211.152 160.608 210.24 160.236 209.16 160.236H205.308V164.052C205.308 165.132 205.68 166.056 206.424 166.824C207.168 167.568 208.08 167.94 209.16 167.94ZM219.204 167.868H227.664C228.504 167.868 229.212 167.58 229.788 167.004C230.388 166.404 230.688 165.696 230.688 164.88V148.14H233.64V164.88C233.64 165.696 233.928 166.404 234.504 167.004C235.104 167.58 235.824 167.868 236.664 167.868H238.32C238.56 167.868 238.68 167.988 238.68 168.228V170.64C238.68 170.88 238.56 171 238.32 171H236.664C235.68 171 234.78 170.76 233.964 170.28C233.172 169.776 232.572 169.116 232.164 168.3C231.756 169.116 231.144 169.776 230.328 170.28C229.536 170.76 228.648 171 227.664 171H219.204V167.868ZM219.6 149.436L222.444 148.68L226.584 165.564L223.74 166.32L219.6 149.436ZM258.001 171C256.921 171 255.961 170.736 255.121 170.208C254.305 169.656 253.669 168.924 253.213 168.012C252.781 167.1 252.565 166.092 252.565 164.988V159.336H254.941V164.88C254.941 165.696 255.241 166.404 255.841 167.004C256.441 167.58 257.161 167.868 258.001 167.868H260.269V158.22H263.221V171H258.001ZM238.309 171C238.069 171 237.949 170.88 237.949 170.64V168.228C237.949 167.988 238.069 167.868 238.309 167.868H239.965C240.805 167.868 241.513 167.58 242.089 167.004C242.689 166.404 242.989 165.696 242.989 164.88V159.336H245.401V164.988C245.401 166.092 245.173 167.1 244.717 168.012C244.285 168.924 243.649 169.656 242.809 170.208C241.993 170.736 241.045 171 239.965 171H238.309ZM249.001 171.072C247.921 171.072 246.961 170.808 246.121 170.28C245.305 169.728 244.669 168.996 244.213 168.084C243.757 167.172 243.529 166.164 243.529 165.06V159.336H245.977V164.952C245.977 165.792 246.265 166.5 246.841 167.076C247.441 167.652 248.161 167.94 249.001 167.94C249.817 167.94 250.513 167.652 251.089 167.076C251.689 166.476 251.989 165.768 251.989 164.952V159.336H254.401V165.06C254.401 166.164 254.173 167.172 253.717 168.084C253.285 168.996 252.649 169.728 251.809 170.28C250.993 170.808 250.057 171.072 249.001 171.072Z" fill="white"/>
<path d="M8.56 106.88C13.0933 104.96 16.48 103.36 18.72 102.08C20.96 100.853 22.4267 99.7867 23.12 98.88C23.8133 98.0267 24.16 97.0667 24.16 96H21.2C17.7867 96 14.64 95.2533 11.76 93.76C8.88 92.2133 6.58667 90.1067 4.88 87.44C3.22667 84.72 2.4 81.68 2.4 78.32C2.4 74.9067 3.25333 71.76 4.96 68.88C6.66667 66 8.93333 63.7333 11.76 62.08C14.64 60.3733 17.7867 59.52 21.2 59.52C24.56 59.52 27.5733 60.3733 30.24 62.08C32.96 63.7333 35.0667 66 36.56 68.88C38.1067 71.76 38.88 74.9067 38.88 78.32V89.44C38.88 94.9333 38.1333 99.3333 36.64 102.64C35.1467 106 32.6133 108.96 29.04 111.52C25.4667 114.08 20.16 116.853 13.12 119.84L8.56 106.88ZM24.16 81.44V78.32C24.16 77.3067 23.8933 76.5067 23.36 75.92C22.8267 75.3333 22.1067 75.04 21.2 75.04C20.24 75.04 19.44 75.3333 18.8 75.92C18.2133 76.5067 17.92 77.3067 17.92 78.32C17.92 79.28 18.2133 80.0533 18.8 80.64C19.44 81.1733 20.24 81.44 21.2 81.44H24.16ZM43.2594 80.48H62.9394C64.806 80.48 65.7394 79.7333 65.7394 78.24C65.7394 78.0267 65.5794 77.3867 65.2594 76.32L57.2594 54.72L71.2594 49.52L81.6594 78.16C81.9794 78.96 82.326 79.5467 82.6994 79.92C83.0727 80.2933 83.6594 80.48 84.4594 80.48C84.9927 80.48 85.2594 80.7467 85.2594 81.28V95.2C85.2594 95.7333 84.9927 96 84.4594 96H83.6594C81.526 96 79.6594 95.6533 78.0594 94.96C76.4594 94.2133 75.206 93.36 74.2994 92.4C72.326 93.8933 70.5927 94.88 69.0994 95.36C67.606 95.7867 65.5527 96 62.9394 96H43.2594V80.48ZM84.4531 96C83.9198 96 83.6531 95.7333 83.6531 95.2V81.28C83.6531 80.7467 83.9198 80.48 84.4531 80.48H93.0931C93.6265 80.48 93.8931 80.7467 93.8931 81.28V95.2C93.8931 95.7333 93.6265 96 93.0931 96H84.4531ZM93.125 96C92.5917 96 92.325 95.7333 92.325 95.2V81.28C92.325 80.7467 92.5917 80.48 93.125 80.48H101.765C102.298 80.48 102.565 80.7467 102.565 81.28V95.2C102.565 95.7333 102.298 96 101.765 96H93.125ZM101.797 96C101.264 96 100.997 95.7333 100.997 95.2V81.28C100.997 80.7467 101.264 80.48 101.797 80.48H110.437C110.97 80.48 111.237 80.7467 111.237 81.28V95.2C111.237 95.7333 110.97 96 110.437 96H101.797ZM110.469 96C109.935 96 109.669 95.7333 109.669 95.2V81.28C109.669 80.7467 109.935 80.48 110.469 80.48H119.109C119.642 80.48 119.909 80.7467 119.909 81.28V95.2C119.909 95.7333 119.642 96 119.109 96H110.469ZM119.141 96C118.607 96 118.341 95.7333 118.341 95.2V81.28C118.341 80.7467 118.607 80.48 119.141 80.48H127.781C128.314 80.48 128.581 80.7467 128.581 81.28V95.2C128.581 95.7333 128.314 96 127.781 96H119.141ZM127.812 96C127.279 96 127.012 95.7333 127.012 95.2V81.28C127.012 80.7467 127.279 80.48 127.812 80.48H136.453C136.986 80.48 137.253 80.7467 137.253 81.28V95.2C137.253 95.7333 136.986 96 136.453 96H127.812ZM136.484 96C135.951 96 135.684 95.7333 135.684 95.2V81.28C135.684 80.7467 135.951 80.48 136.484 80.48H145.124C145.658 80.48 145.924 80.7467 145.924 81.28V95.2C145.924 95.7333 145.658 96 145.124 96H136.484ZM145.156 96C144.623 96 144.356 95.7333 144.356 95.2V81.28C144.356 80.7467 144.623 80.48 145.156 80.48H155.636C156.063 80.48 156.436 80.32 156.756 80C157.076 79.68 157.236 79.28 157.236 78.8V61.28H171.956V79.76C171.956 82.6933 171.236 85.4133 169.796 87.92C168.356 90.3733 166.41 92.3467 163.956 93.84C161.503 95.28 158.783 96 155.796 96H145.156ZM147.316 102.4H159.716V114.8H147.316V102.4ZM159.716 102.4H172.116V114.8H159.716V102.4ZM182.779 106.88C187.312 104.96 190.699 103.36 192.939 102.08C195.179 100.853 196.645 99.7867 197.339 98.88C198.032 98.0267 198.379 97.0667 198.379 96H195.419C192.005 96 188.859 95.2533 185.979 93.76C183.099 92.2133 180.805 90.1067 179.099 87.44C177.445 84.72 176.619 81.68 176.619 78.32C176.619 74.9067 177.472 71.76 179.179 68.88C180.885 66 183.152 63.7333 185.979 62.08C188.859 60.3733 192.005 59.52 195.419 59.52C198.779 59.52 201.792 60.3733 204.459 62.08C207.179 63.7333 209.285 66 210.779 68.88C212.325 71.76 213.099 74.9067 213.099 78.32V89.44C213.099 94.9333 212.352 99.3333 210.859 102.64C209.365 106 206.832 108.96 203.259 111.52C199.685 114.08 194.379 116.853 187.339 119.84L182.779 106.88ZM195.419 81.44H198.379V78.32C198.379 77.3067 198.112 76.5067 197.579 75.92C197.045 75.3333 196.325 75.04 195.419 75.04C194.459 75.04 193.659 75.3333 193.019 75.92C192.432 76.5067 192.139 77.3067 192.139 78.32C192.139 79.28 192.432 80.0533 193.019 80.64C193.659 81.1733 194.459 81.44 195.419 81.44ZM212.299 80.48H215.579C216.112 80.48 216.379 80.7467 216.379 81.28V95.2C216.379 95.7333 216.112 96 215.579 96H212.299V80.48ZM215.547 96C215.014 96 214.747 95.7333 214.747 95.2V81.28C214.747 80.7467 215.014 80.48 215.547 80.48H224.187C224.72 80.48 224.987 80.7467 224.987 81.28V95.2C224.987 95.7333 224.72 96 224.187 96H215.547ZM224.219 96C223.685 96 223.419 95.7333 223.419 95.2V81.28C223.419 80.7467 223.685 80.48 224.219 80.48H232.859C233.392 80.48 233.659 80.7467 233.659 81.28V95.2C233.659 95.7333 233.392 96 232.859 96H224.219ZM232.091 81.28C232.091 80.7467 232.357 80.48 232.891 80.48H251.211C252.171 80.48 252.997 80.1867 253.691 79.6C254.384 79.0133 254.731 78.1333 254.731 76.96C254.731 75.7867 254.117 74.8267 252.891 74.08L235.531 62.48V51.6L251.851 34.24L261.931 43.84L251.051 55.12L261.931 62.32C264.331 63.8667 266.171 65.9733 267.451 68.64C268.784 71.3067 269.451 74.1867 269.451 77.28C269.451 80.6933 268.624 83.84 266.971 86.72C265.317 89.5467 263.077 91.8133 260.251 93.52C257.477 95.1733 254.411 96 251.051 96H232.891C232.357 96 232.091 95.7333 232.091 95.2V81.28Z" fill="white"/>
</svg>
